<svg width="88" height="88" viewBox="0 0 88 88" fill="none" xmlns="http://www.w3.org/2000/svg">
<g clip-path="url(#clip0_1_3)">
<g filter="url(#filter0_d_1_3)">
<path d="M44 7.33334C29.81 7.33334 18.3333 18.81 18.3333 33C18.3333 52.25 44 80.6667 44 80.6667C44 80.6667 69.6667 52.25 69.6667 33C69.6667 18.81 58.19 7.33334 44 7.33334ZM44 42.1667C38.94 42.1667 34.8333 38.06 34.8333 33C34.8333 27.94 38.94 23.8333 44 23.8333C49.06 23.8333 53.1667 27.94 53.1667 33C53.1667 38.06 49.06 42.1667 44 42.1667Z" fill="#8C5CFF"/>
</g>
</g>
<defs>
<filter id="filter0_d_1_3" x="2.33334" y="-8.66666" width="83.3333" height="105.333" filterUnits="userSpaceOnUse" color-interpolation-filters="sRGB">
<feFlood flood-opacity="0" result="BackgroundImageFix"/>
<feColorMatrix in="SourceAlpha" type="matrix" values="0 0 0 0 0 0 0 0 0 0 0 0 0 0 0 0 0 0 127 0" result="hardAlpha"/>
<feOffset/>
<feGaussianBlur stdDeviation="8"/>
<feComposite in2="hardAlpha" operator="out"/>
<feColorMatrix type="matrix" values="0 0 0 0 0.54902 0 0 0 0 0.360784 0 0 0 0 1 0 0 0 0.29 0"/>
<feBlend mode="normal" in2="BackgroundImageFix" result="effect1_dropShadow_1_3"/>
<feBlend mode="normal" in="SourceGraphic" in2="effect1_dropShadow_1_3" result="shape"/>
</filter>
<clipPath id="clip0_1_3">
<rect width="88" height="88" fill="white"/>
</clipPath>
</defs>
</svg>
